<mxfile host="app.diagrams.net" modified="2024-05-13T01:31:21.433Z" agent="Mozilla/5.0 (Windows NT 10.0; Win64; x64) AppleWebKit/537.36 (KHTML, like Gecko) Chrome/124.0.0.0 Safari/537.36" etag="x6T2tqIU3oRsMvsY-H-H" version="24.4.0" type="github">
  <diagram id="C5RBs43oDa-KdzZeNtuy" name="Page-1">
    <mxGraphModel dx="1434" dy="772" grid="1" gridSize="10" guides="1" tooltips="1" connect="1" arrows="1" fold="1" page="1" pageScale="1" pageWidth="827" pageHeight="1169" math="0" shadow="0">
      <root>
        <mxCell id="WIyWlLk6GJQsqaUBKTNV-0" />
        <mxCell id="WIyWlLk6GJQsqaUBKTNV-1" parent="WIyWlLk6GJQsqaUBKTNV-0" />
        <mxCell id="E86IG1fiJ33ZCB6-SGDQ-12" value="Pessoa" style="swimlane;fontStyle=1;align=center;verticalAlign=top;childLayout=stackLayout;horizontal=1;startSize=26;horizontalStack=0;resizeParent=1;resizeParentMax=0;resizeLast=0;collapsible=1;marginBottom=0;whiteSpace=wrap;html=1;rounded=0;shadow=0;spacingLeft=4;spacingRight=4;fontFamily=Helvetica;fontSize=12;fontColor=default;fillColor=none;gradientColor=none;" vertex="1" parent="WIyWlLk6GJQsqaUBKTNV-1">
          <mxGeometry x="290" y="10" width="260" height="370" as="geometry" />
        </mxCell>
        <mxCell id="E86IG1fiJ33ZCB6-SGDQ-13" value="&lt;div&gt;_nome: string&lt;/div&gt;&lt;div&gt;_endereco: string&lt;/div&gt;&lt;div&gt;_cpf: string&lt;/div&gt;&lt;div&gt;_data_nascimento: string&lt;/div&gt;&lt;div&gt;_genero: string&lt;/div&gt;&lt;div&gt;_telefone: string&lt;/div&gt;" style="text;strokeColor=none;fillColor=none;align=left;verticalAlign=top;spacingLeft=4;spacingRight=4;overflow=hidden;rotatable=0;points=[[0,0.5],[1,0.5]];portConstraint=eastwest;whiteSpace=wrap;html=1;fontFamily=Helvetica;fontSize=12;fontColor=default;" vertex="1" parent="E86IG1fiJ33ZCB6-SGDQ-12">
          <mxGeometry y="26" width="260" height="94" as="geometry" />
        </mxCell>
        <mxCell id="E86IG1fiJ33ZCB6-SGDQ-14" value="" style="line;strokeWidth=1;fillColor=none;align=left;verticalAlign=middle;spacingTop=-1;spacingLeft=3;spacingRight=3;rotatable=0;labelPosition=right;points=[];portConstraint=eastwest;strokeColor=inherit;rounded=0;shadow=0;fontFamily=Helvetica;fontSize=12;fontColor=default;" vertex="1" parent="E86IG1fiJ33ZCB6-SGDQ-12">
          <mxGeometry y="120" width="260" height="8" as="geometry" />
        </mxCell>
        <mxCell id="E86IG1fiJ33ZCB6-SGDQ-15" value="&lt;div&gt;+ __init__(nome: string, endereco: string, cpf: string, data_nascimento: string, genero: string, telefone: string): void&lt;/div&gt;&lt;div&gt;&lt;span style=&quot;background-color: initial;&quot;&gt;+&lt;/span&gt;&lt;span style=&quot;background-color: initial;&quot;&gt;&amp;nbsp;&lt;/span&gt;get_nome(): string&lt;/div&gt;&lt;div&gt;&lt;span style=&quot;background-color: initial;&quot;&gt;+&lt;/span&gt;&lt;span style=&quot;background-color: initial;&quot;&gt;&amp;nbsp;&lt;/span&gt;get_endereco(): string&lt;/div&gt;&lt;div&gt;&lt;span style=&quot;background-color: initial;&quot;&gt;+&lt;/span&gt;&lt;span style=&quot;background-color: initial;&quot;&gt;&amp;nbsp;&lt;/span&gt;get_cpf(): string&lt;/div&gt;&lt;div&gt;&lt;span style=&quot;background-color: initial;&quot;&gt;+&lt;/span&gt;&lt;span style=&quot;background-color: initial;&quot;&gt;&amp;nbsp;&lt;/span&gt;get_data_nascimento(): string&lt;/div&gt;&lt;div&gt;&lt;span style=&quot;background-color: initial;&quot;&gt;+&lt;/span&gt;&lt;span style=&quot;background-color: initial;&quot;&gt;&amp;nbsp;&lt;/span&gt;get_genero(): string&lt;/div&gt;&lt;div&gt;&lt;span style=&quot;background-color: initial;&quot;&gt;+&lt;/span&gt;&lt;span style=&quot;background-color: initial;&quot;&gt;&amp;nbsp;&lt;/span&gt;get_telefone(): string&lt;/div&gt;&lt;div&gt;&lt;span style=&quot;background-color: initial;&quot;&gt;+&lt;/span&gt;&lt;span style=&quot;background-color: initial;&quot;&gt;&amp;nbsp;&lt;/span&gt;set_nome(nome: string): void&lt;/div&gt;&lt;div&gt;&lt;span style=&quot;background-color: initial;&quot;&gt;+&lt;/span&gt;&lt;span style=&quot;background-color: initial;&quot;&gt;&amp;nbsp;&lt;/span&gt;set_endereco(endereco: string): void&lt;/div&gt;&lt;div&gt;&lt;span style=&quot;background-color: initial;&quot;&gt;+&lt;/span&gt;&lt;span style=&quot;background-color: initial;&quot;&gt;&amp;nbsp;&lt;/span&gt;set_cpf(cpf: string): void&lt;/div&gt;&lt;div&gt;&lt;span style=&quot;background-color: initial;&quot;&gt;+&lt;/span&gt;&lt;span style=&quot;background-color: initial;&quot;&gt;&amp;nbsp;&lt;/span&gt;set_data_nascimento(data_nascimento: string): void&lt;/div&gt;&lt;div&gt;&lt;span style=&quot;background-color: initial;&quot;&gt;+&lt;/span&gt;&lt;span style=&quot;background-color: initial;&quot;&gt;&amp;nbsp;&lt;/span&gt;set_genero(genero: string): void&lt;/div&gt;&lt;div&gt;&lt;span style=&quot;background-color: initial;&quot;&gt;+&lt;/span&gt;&lt;span style=&quot;background-color: initial;&quot;&gt;&amp;nbsp;&lt;/span&gt;set_telefone(telefone: string): void&lt;/div&gt;" style="text;strokeColor=none;fillColor=none;align=left;verticalAlign=top;spacingLeft=4;spacingRight=4;overflow=hidden;rotatable=0;points=[[0,0.5],[1,0.5]];portConstraint=eastwest;whiteSpace=wrap;html=1;fontFamily=Helvetica;fontSize=12;fontColor=default;" vertex="1" parent="E86IG1fiJ33ZCB6-SGDQ-12">
          <mxGeometry y="128" width="260" height="242" as="geometry" />
        </mxCell>
        <mxCell id="E86IG1fiJ33ZCB6-SGDQ-19" value="Funcionario" style="swimlane;fontStyle=1;align=center;verticalAlign=top;childLayout=stackLayout;horizontal=1;startSize=26;horizontalStack=0;resizeParent=1;resizeParentMax=0;resizeLast=0;collapsible=1;marginBottom=0;whiteSpace=wrap;html=1;rounded=0;shadow=0;spacingLeft=4;spacingRight=4;fontFamily=Helvetica;fontSize=12;fontColor=default;fillColor=none;gradientColor=none;strokeColor=default;" vertex="1" parent="WIyWlLk6GJQsqaUBKTNV-1">
          <mxGeometry x="42" y="470" width="340" height="160" as="geometry" />
        </mxCell>
        <mxCell id="E86IG1fiJ33ZCB6-SGDQ-20" value="&lt;div&gt;- _id_carteirinha_funcionario:&amp;nbsp;&lt;span style=&quot;background-color: initial;&quot;&gt;string&amp;nbsp;&lt;/span&gt;&lt;/div&gt;" style="text;strokeColor=none;fillColor=none;align=left;verticalAlign=top;spacingLeft=4;spacingRight=4;overflow=hidden;rotatable=0;points=[[0,0.5],[1,0.5]];portConstraint=eastwest;whiteSpace=wrap;html=1;fontFamily=Helvetica;fontSize=12;fontColor=default;" vertex="1" parent="E86IG1fiJ33ZCB6-SGDQ-19">
          <mxGeometry y="26" width="340" height="24" as="geometry" />
        </mxCell>
        <mxCell id="E86IG1fiJ33ZCB6-SGDQ-21" value="" style="line;strokeWidth=1;fillColor=none;align=left;verticalAlign=middle;spacingTop=-1;spacingLeft=3;spacingRight=3;rotatable=0;labelPosition=right;points=[];portConstraint=eastwest;strokeColor=inherit;rounded=0;shadow=0;fontFamily=Helvetica;fontSize=12;fontColor=default;" vertex="1" parent="E86IG1fiJ33ZCB6-SGDQ-19">
          <mxGeometry y="50" width="340" height="8" as="geometry" />
        </mxCell>
        <mxCell id="E86IG1fiJ33ZCB6-SGDQ-22" value="&lt;div&gt;&amp;nbsp;+ __init__(nome: string,&amp;nbsp;&lt;span style=&quot;background-color: initial;&quot;&gt;endereco: string,&amp;nbsp; &lt;/span&gt;&lt;span style=&quot;background-color: initial;&quot;&gt;cpf: string,&amp;nbsp;&lt;/span&gt;&lt;span style=&quot;background-color: initial;&quot;&gt;data_nascimento: string,&amp;nbsp;&lt;/span&gt;&lt;span style=&quot;background-color: initial;&quot;&gt;genero: string,&amp;nbsp;&lt;/span&gt;&lt;span style=&quot;background-color: initial;&quot;&gt;telefone: string,&amp;nbsp;&lt;/span&gt;&lt;span style=&quot;background-color: initial;&quot;&gt;id_carteirinha_funcionario:&amp;nbsp;&lt;/span&gt;&lt;span style=&quot;background-color: initial;&quot;&gt;string): void&amp;nbsp;&lt;/span&gt;&lt;/div&gt;&lt;div&gt;&lt;span style=&quot;background-color: initial;&quot;&gt;+ get_id_carteirinha_funcionario():&amp;nbsp;&lt;/span&gt;&lt;span style=&quot;background-color: initial;&quot;&gt;string&amp;nbsp; &amp;nbsp; &amp;nbsp; &amp;nbsp; &amp;nbsp;&amp;nbsp;&lt;/span&gt;&lt;/div&gt;&lt;div&gt;&lt;span style=&quot;background-color: initial;&quot;&gt;+ set_id_carteirinha_funcionario(id_carteirinha:&lt;/span&gt;&lt;span style=&quot;background-color: initial;&quot;&gt;string): void&amp;nbsp;&amp;nbsp;&lt;/span&gt;&lt;/div&gt;&lt;div&gt;+ __str__(): string&amp;nbsp;&amp;nbsp;&lt;/div&gt;" style="text;strokeColor=none;fillColor=none;align=left;verticalAlign=top;spacingLeft=4;spacingRight=4;overflow=hidden;rotatable=0;points=[[0,0.5],[1,0.5]];portConstraint=eastwest;whiteSpace=wrap;html=1;fontFamily=Helvetica;fontSize=12;fontColor=default;" vertex="1" parent="E86IG1fiJ33ZCB6-SGDQ-19">
          <mxGeometry y="58" width="340" height="102" as="geometry" />
        </mxCell>
        <mxCell id="E86IG1fiJ33ZCB6-SGDQ-27" value="Usuario" style="swimlane;fontStyle=1;align=center;verticalAlign=top;childLayout=stackLayout;horizontal=1;startSize=26;horizontalStack=0;resizeParent=1;resizeParentMax=0;resizeLast=0;collapsible=1;marginBottom=0;whiteSpace=wrap;html=1;rounded=0;shadow=0;spacingLeft=4;spacingRight=4;fontFamily=Helvetica;fontSize=12;fontColor=default;fillColor=none;gradientColor=none;" vertex="1" parent="WIyWlLk6GJQsqaUBKTNV-1">
          <mxGeometry x="459" y="470" width="340" height="160" as="geometry" />
        </mxCell>
        <mxCell id="E86IG1fiJ33ZCB6-SGDQ-28" value="&lt;div&gt;- _id_carteirinha_usuario:&amp;nbsp;&lt;span style=&quot;background-color: initial;&quot;&gt;string&amp;nbsp;&lt;/span&gt;&lt;/div&gt;" style="text;strokeColor=none;fillColor=none;align=left;verticalAlign=top;spacingLeft=4;spacingRight=4;overflow=hidden;rotatable=0;points=[[0,0.5],[1,0.5]];portConstraint=eastwest;whiteSpace=wrap;html=1;fontFamily=Helvetica;fontSize=12;fontColor=default;" vertex="1" parent="E86IG1fiJ33ZCB6-SGDQ-27">
          <mxGeometry y="26" width="340" height="24" as="geometry" />
        </mxCell>
        <mxCell id="E86IG1fiJ33ZCB6-SGDQ-29" value="" style="line;strokeWidth=1;fillColor=none;align=left;verticalAlign=middle;spacingTop=-1;spacingLeft=3;spacingRight=3;rotatable=0;labelPosition=right;points=[];portConstraint=eastwest;strokeColor=inherit;rounded=0;shadow=0;fontFamily=Helvetica;fontSize=12;fontColor=default;" vertex="1" parent="E86IG1fiJ33ZCB6-SGDQ-27">
          <mxGeometry y="50" width="340" height="8" as="geometry" />
        </mxCell>
        <mxCell id="E86IG1fiJ33ZCB6-SGDQ-30" value="&lt;div&gt;&amp;nbsp;+ __init__(nome: string,&amp;nbsp;&lt;span style=&quot;background-color: initial;&quot;&gt;endereco: string,&amp;nbsp; &lt;/span&gt;&lt;span style=&quot;background-color: initial;&quot;&gt;cpf: string,&amp;nbsp;&lt;/span&gt;&lt;span style=&quot;background-color: initial;&quot;&gt;data_nascimento: string,&amp;nbsp;&lt;/span&gt;&lt;span style=&quot;background-color: initial;&quot;&gt;genero: string,&amp;nbsp;&lt;/span&gt;&lt;span style=&quot;background-color: initial;&quot;&gt;telefone: string,&amp;nbsp;&lt;/span&gt;&lt;span style=&quot;background-color: initial;&quot;&gt;id_carteirinha_&lt;/span&gt;usuario&lt;span style=&quot;background-color: initial;&quot;&gt;:&amp;nbsp;&lt;/span&gt;&lt;span style=&quot;background-color: initial;&quot;&gt;string): void&amp;nbsp;&lt;/span&gt;&lt;/div&gt;&lt;div&gt;&lt;span style=&quot;background-color: initial;&quot;&gt;+ get_id_carteirinha_&lt;/span&gt;usuario&lt;span style=&quot;background-color: initial;&quot;&gt;():&amp;nbsp;&lt;/span&gt;&lt;span style=&quot;background-color: initial;&quot;&gt;string&amp;nbsp; &amp;nbsp; &amp;nbsp; &amp;nbsp; &amp;nbsp;&amp;nbsp;&lt;/span&gt;&lt;/div&gt;&lt;div&gt;&lt;span style=&quot;background-color: initial;&quot;&gt;+ set_id_carteirinha_usuario(id_carteirinha:&lt;/span&gt;&lt;span style=&quot;background-color: initial;&quot;&gt;string): void&amp;nbsp;&amp;nbsp;&lt;/span&gt;&lt;/div&gt;&lt;div&gt;+ __str__(): string&amp;nbsp;&amp;nbsp;&lt;/div&gt;" style="text;strokeColor=none;fillColor=none;align=left;verticalAlign=top;spacingLeft=4;spacingRight=4;overflow=hidden;rotatable=0;points=[[0,0.5],[1,0.5]];portConstraint=eastwest;whiteSpace=wrap;html=1;fontFamily=Helvetica;fontSize=12;fontColor=default;" vertex="1" parent="E86IG1fiJ33ZCB6-SGDQ-27">
          <mxGeometry y="58" width="340" height="102" as="geometry" />
        </mxCell>
        <mxCell id="E86IG1fiJ33ZCB6-SGDQ-35" value="" style="endArrow=none;html=1;edgeStyle=orthogonalEdgeStyle;rounded=0;fontFamily=Helvetica;fontSize=12;fontColor=default;exitX=0.5;exitY=1;exitDx=0;exitDy=0;exitPerimeter=0;entryX=0.5;entryY=0;entryDx=0;entryDy=0;" edge="1" parent="WIyWlLk6GJQsqaUBKTNV-1" source="E86IG1fiJ33ZCB6-SGDQ-15" target="E86IG1fiJ33ZCB6-SGDQ-19">
          <mxGeometry relative="1" as="geometry">
            <mxPoint x="450" y="410" as="sourcePoint" />
            <mxPoint x="610" y="410" as="targetPoint" />
            <Array as="points">
              <mxPoint x="420" y="410" />
              <mxPoint x="212" y="410" />
            </Array>
          </mxGeometry>
        </mxCell>
        <mxCell id="E86IG1fiJ33ZCB6-SGDQ-36" value="parent" style="edgeLabel;resizable=0;html=1;align=left;verticalAlign=bottom;rounded=0;shadow=0;spacingLeft=4;spacingRight=4;fontFamily=Helvetica;fontSize=12;fontColor=default;fillColor=none;gradientColor=none;" connectable="0" vertex="1" parent="E86IG1fiJ33ZCB6-SGDQ-35">
          <mxGeometry x="-1" relative="1" as="geometry">
            <mxPoint x="-4" y="19" as="offset" />
          </mxGeometry>
        </mxCell>
        <mxCell id="E86IG1fiJ33ZCB6-SGDQ-37" value="child" style="edgeLabel;resizable=0;html=1;align=right;verticalAlign=bottom;rounded=0;shadow=0;spacingLeft=4;spacingRight=4;fontFamily=Helvetica;fontSize=12;fontColor=default;fillColor=none;gradientColor=none;" connectable="0" vertex="1" parent="E86IG1fiJ33ZCB6-SGDQ-35">
          <mxGeometry x="1" relative="1" as="geometry" />
        </mxCell>
        <mxCell id="E86IG1fiJ33ZCB6-SGDQ-39" value="" style="endArrow=none;html=1;edgeStyle=orthogonalEdgeStyle;rounded=0;fontFamily=Helvetica;fontSize=12;fontColor=default;entryX=0.5;entryY=0;entryDx=0;entryDy=0;" edge="1" parent="WIyWlLk6GJQsqaUBKTNV-1">
          <mxGeometry relative="1" as="geometry">
            <mxPoint x="420" y="409" as="sourcePoint" />
            <mxPoint x="629" y="468" as="targetPoint" />
            <Array as="points">
              <mxPoint x="420" y="410" />
              <mxPoint x="629" y="410" />
            </Array>
          </mxGeometry>
        </mxCell>
        <mxCell id="E86IG1fiJ33ZCB6-SGDQ-41" value="child" style="edgeLabel;resizable=0;html=1;align=right;verticalAlign=bottom;rounded=0;shadow=0;spacingLeft=4;spacingRight=4;fontFamily=Helvetica;fontSize=12;fontColor=default;fillColor=none;gradientColor=none;" connectable="0" vertex="1" parent="E86IG1fiJ33ZCB6-SGDQ-39">
          <mxGeometry x="1" relative="1" as="geometry" />
        </mxCell>
      </root>
    </mxGraphModel>
  </diagram>
</mxfile>
